<svg width="743" height="103" viewBox="0 0 743 103" fill="none" xmlns="http://www.w3.org/2000/svg">
<path d="M79.3519 71.616H17.7199L3.6079 102H0.295898L47.0959 1.2H49.9759L96.7759 102H93.4639L79.3519 71.616ZM78.0559 68.88L48.5359 5.088L19.0159 68.88H78.0559Z" fill="white"/>
<path d="M174.799 102.432C162.511 102.432 152.959 98.832 146.143 91.632C139.327 84.432 135.919 73.824 135.919 59.808V1.2H138.799V59.664C138.799 72.912 141.871 82.896 148.015 89.616C154.255 96.336 163.183 99.696 174.799 99.696C186.415 99.696 195.295 96.336 201.439 89.616C207.679 82.896 210.799 72.912 210.799 59.664V1.2H213.679V59.808C213.679 73.824 210.271 84.432 203.455 91.632C196.639 98.832 187.087 102.432 174.799 102.432Z" fill="white"/>
<path d="M344.279 102L318.647 66.432C315.287 67.104 311.351 67.44 306.839 67.44H275.591V102H272.711V1.2H306.839C319.223 1.2 328.919 4.128 335.927 9.984C342.935 15.744 346.439 23.856 346.439 34.32C346.439 42.384 344.279 49.152 339.959 54.624C335.639 60 329.543 63.696 321.671 65.712L347.879 102H344.279ZM307.127 64.704C318.839 64.704 327.815 62.064 334.055 56.784C340.391 51.504 343.559 44.016 343.559 34.32C343.559 24.624 340.391 17.136 334.055 11.856C327.815 6.576 318.839 3.936 307.127 3.936H275.591V64.704H307.127Z" fill="white"/>
<path d="M438.429 102.432C428.733 102.432 419.949 100.224 412.077 95.808C404.205 91.392 398.013 85.344 393.501 77.664C388.989 69.888 386.733 61.2 386.733 51.6C386.733 42 388.989 33.36 393.501 25.68C398.013 17.904 404.205 11.808 412.077 7.39201C419.949 2.97601 428.733 0.768005 438.429 0.768005C448.125 0.768005 456.909 2.97601 464.781 7.39201C472.653 11.808 478.845 17.904 483.357 25.68C487.869 33.36 490.125 42 490.125 51.6C490.125 61.2 487.869 69.888 483.357 77.664C478.845 85.344 472.653 91.392 464.781 95.808C456.909 100.224 448.125 102.432 438.429 102.432ZM438.429 99.696C447.549 99.696 455.805 97.632 463.197 93.504C470.685 89.28 476.541 83.52 480.765 76.224C485.085 68.832 487.245 60.624 487.245 51.6C487.245 42.576 485.085 34.416 480.765 27.12C476.541 19.728 470.685 13.968 463.197 9.84C455.805 5.616 447.549 3.504 438.429 3.504C429.309 3.504 421.005 5.616 413.517 9.84C406.125 13.968 400.269 19.728 395.949 27.12C391.725 34.416 389.613 42.576 389.613 51.6C389.613 60.624 391.725 68.832 395.949 76.224C400.269 83.52 406.125 89.28 413.517 93.504C421.005 97.632 429.309 99.696 438.429 99.696Z" fill="white"/>
<path d="M610.932 102L585.3 66.432C581.94 67.104 578.004 67.44 573.492 67.44H542.244V102H539.364V1.2H573.492C585.876 1.2 595.572 4.128 602.58 9.984C609.588 15.744 613.092 23.856 613.092 34.32C613.092 42.384 610.932 49.152 606.612 54.624C602.292 60 596.196 63.696 588.324 65.712L614.532 102H610.932ZM573.78 64.704C585.492 64.704 594.468 62.064 600.708 56.784C607.044 51.504 610.212 44.016 610.212 34.32C610.212 24.624 607.044 17.136 600.708 11.856C594.468 6.576 585.492 3.936 573.78 3.936H542.244V64.704H573.78Z" fill="white"/>
<path d="M725.243 71.616H663.611L649.499 102H646.187L692.987 1.2H695.867L742.667 102H739.355L725.243 71.616ZM723.947 68.88L694.427 5.088L664.907 68.88H723.947Z" fill="white"/>
</svg>
